<?xml version="1.0" encoding="utf-8"?>
<!-- Generator: Adobe Illustrator 21.0.0, SVG Export Plug-In . SVG Version: 6.00 Build 0)  -->
<svg version="1.1" id="Layer_1" xmlns="http://www.w3.org/2000/svg" xmlns:xlink="http://www.w3.org/1999/xlink" x="0px" y="0px"
	 viewBox="0 0 95 95" style="enable-background:new 0 0 95 95;" xml:space="preserve">
<style type="text/css">
	.st0{fill:#716DA2;}
	.st1{fill:none;}
	.st2{fill:#FFFFFF;}
	.st3{fill:none;stroke:#FFFFFF;stroke-width:3;stroke-linecap:round;stroke-linejoin:round;}
</style>
<path class="st0" d="M89,95H6c-3.3,0-6-2.7-6-6V6c0-3.3,2.7-6,6-6h83c3.3,0,6,2.7,6,6v83C95,92.3,92.3,95,89,95z"/>
<title>heroku-data-postgres</title>
<g>
	<path class="st1" d="M0.8,85.5V10.5c0-4.8,3.9-8.7,8.7-8.7h75.1c4.8,0,8.7,3.9,8.7,8.7v75.1c0,4.8-3.9,8.7-8.7,8.7H9.5
		C4.7,94.2,0.8,90.3,0.8,85.5z"/>
	<path class="st2" d="M41.2,51.4C25.3,51.4,13,37.1,13,28c0-7.4,12.4-9.7,28.3-9.7V51.4z"/>
	<path class="st3" d="M41.9,51.4c-15.9,0-28.3-14.3-28.3-23.4c0-7.4,12.4-9.7,28.3-9.7V51.4z M52.1,51.4c15.9,0,28.3-14.3,28.3-23.4
		c0-7.4-12.4-9.7-28.3-9.7C52.1,18.4,52.1,51.4,52.1,51.4z M52.1,18.4v52.7c0,5.1-6.2,7.7-9.8,4"/>
</g>
</svg>
