<svg id="Capa_1" xmlns="http://www.w3.org/2000/svg" viewBox="0 0 400 400"><style>.st0{fill:none}.st1{fill:#fff}</style><title>Twitter_Logo_White-on-Blue</title><path d="M0 0h400v400H0z" id="Dark_Blue"/><path class="st0" d="M0 0h400v400H0z" id="Logo_FIXED"/><path id="LinkedIn" class="st1" d="M312.7 224.4v83.4h-48.3V230c0-19.5-7-32.9-24.5-32.9-13.4 0-21.3 9-24.8 17.7-1.3 3.1-1.6 7.4-1.6 11.8v81.2h-48.3s.7-131.7 0-145.4h48.3V183c-.1.2-.2.3-.3.5h.3v-.5c6.4-9.9 17.9-24 43.6-24 31.8-.1 55.6 20.7 55.6 65.4zM114.6 92.3c-16.5 0-27.4 10.8-27.4 25.1 0 14 10.5 25.1 26.7 25.1h.3c16.9 0 27.3-11.2 27.3-25.1-.2-14.3-10.3-25.1-26.9-25.1zM90.1 307.7h48.3V162.4H90.1v145.3z"/></svg>