<?xml version="1.0" encoding="utf-8"?>
<!-- Svg Vector Icons : http://www.onlinewebfonts.com/icon -->
<!DOCTYPE svg PUBLIC "-//W3C//DTD SVG 1.1//EN" "http://www.w3.org/Graphics/SVG/1.1/DTD/svg11.dtd">
<svg version="1.1" xmlns="http://www.w3.org/2000/svg" xmlns:xlink="http://www.w3.org/1999/xlink" x="0px" y="0px" viewBox="0 0 1000 1000" enable-background="new 0 0 1000 1000" xml:space="preserve">
<metadata> Svg Vector Icons : http://www.onlinewebfonts.com/icon </metadata>
<g><path d="M825.4,10H174.6C84.1,10,10,84.1,10,174.6v650.8C10,915.9,84.1,990,174.6,990h650.8c90.5,0,164.6-74.1,164.6-164.6V174.6C990,84.1,915.9,10,825.4,10z M377.5,806.3H255V377.5h122.5V806.3z M316.3,316.3c-33.8,0-61.3-27.4-61.3-61.3s27.4-61.3,61.3-61.3c33.8,0,61.3,27.4,61.3,61.3S350.1,316.3,316.3,316.3z M806.3,806.3H683.8v-245c0-33.8-27.4-61.3-61.3-61.3s-61.3,27.4-61.3,61.3v245H438.8V377.5h122.5v76c25.3-34.7,63.9-76,107.2-76c76.1,0,137.8,68.6,137.8,153.1V806.3z"/></g>
</svg>