<?xml version="1.0" encoding="utf-8"?>
<!-- Generator: Adobe Illustrator 16.0.3, SVG Export Plug-In . SVG Version: 6.00 Build 0)  -->
<!DOCTYPE svg PUBLIC "-//W3C//DTD SVG 1.1//EN" "http://www.w3.org/Graphics/SVG/1.1/DTD/svg11.dtd">
<svg version="1.1" id="Candidate_1_" xmlns="http://www.w3.org/2000/svg" xmlns:xlink="http://www.w3.org/1999/xlink" x="0px"
	 y="0px" width="612px" height="218.05px" viewBox="232.7 240.764 612 218.05" enable-background="new 232.7 240.764 612 218.05"
	 xml:space="preserve">
<g id="Text_1_">
	<g id="m:_Stroked_in_Illustrator_1.2_center">
		<g>
			<path fill="#FFFFFF" d="M512.56,317.509c-13.111,0-23.794,5.341-32.373,16.186c-5.827-10.521-16.024-16.186-28.973-16.186
				c-14.244,0-22.661,7.445-28.488,14.729v-12.625h-23.955v96.469h23.955v-53.576c0-13.92,7.77-22.984,19.747-22.984
				c11.816,0,18.614,8.093,18.614,22.337v54.062h23.956v-53.577c0-14.082,7.607-22.984,19.747-22.984
				c11.978,0,18.614,8.093,18.614,22.661v53.9h23.955v-60.699C547.359,331.59,534.249,317.509,512.56,317.509z"/>
		</g>
	</g>
	<g id="Lab">
		<g>
			<path fill="#F8B71D" d="M595.109,286.269h-23.794v129.652h69.763v-23.47h-45.969V286.269z M831.428,331.914
				c-8.741-9.388-19.424-14.244-31.888-14.244c-5.826,0-11.168,1.133-16.186,3.237c-5.018,2.104-9.712,5.503-14.082,9.711v-42.246
				h-23.794v127.547h23.794v-10.197c4.694,4.532,9.388,7.607,14.243,9.711c4.694,1.942,9.874,2.914,15.377,2.914
				c12.464,0,23.146-4.856,32.211-14.406c9.064-9.549,13.597-21.527,13.597-35.771C844.538,353.442,840.168,341.302,831.428,331.914
				z M813.137,388.404c-5.018,5.341-11.168,7.931-18.614,7.931c-7.607,0-13.92-2.589-18.775-7.931
				c-5.018-5.18-7.446-12.14-7.446-20.719c0-8.255,2.429-15.053,7.446-20.232s11.33-7.77,18.775-7.77
				c7.446,0,13.759,2.59,18.614,7.931c4.856,5.18,7.445,11.978,7.445,20.233C820.583,376.265,818.154,383.063,813.137,388.404z
				 M692.064,317.347c-15.701,0-26.384,3.237-37.229,8.093l5.827,17.643c8.902-3.723,17.319-5.827,28.325-5.827
				c15.863,0,24.441,6.636,24.441,20.718v0.809c-7.607-2.428-15.538-3.885-26.545-3.885c-24.117,0-40.951,10.521-40.951,31.725
				v1.133c0,19.747,16.672,30.754,35.124,30.754c15.053,0,25.412-4.532,32.049-12.626v10.197h23.793v-57.299
				c0-15.377-4.37-23.308-11.653-30.43C718.609,321.393,706.794,317.347,692.064,317.347z M713.916,378.692
				c0,10.359-11.007,22.175-25.574,22.175c-10.521,0-18.291-5.179-18.291-14.567v-0.324c0-10.035,7.932-16.024,22.014-16.024
				c8.74,0,16.186,1.619,21.689,3.885L713.916,378.692L713.916,378.692z"/>
		</g>
	</g>
</g>
<g>
	<g>
		<path fill="#407DB8" d="M314.926,453.473v-6.15h10.521v6.15c0,2.913-2.429,5.342-5.342,5.342S314.926,456.386,314.926,453.473z"/>
		<path fill="#407DB8" d="M285.467,453.473v-6.15h10.683v6.15c0,2.913-2.428,5.342-5.341,5.342
			C287.895,458.814,285.467,456.386,285.467,453.473z"/>
		<path fill="#407DB8" d="M256.008,453.473v-6.15h10.683v6.15c0,2.913-2.428,5.342-5.341,5.342S256.008,456.386,256.008,453.473z"/>
	</g>
	<path fill="#407DB8" d="M335.645,440.686l-4.856,8.093h-80.445l-4.532-8.093H335.645z"/>
	
		<linearGradient id="SVGID_1_" gradientUnits="userSpaceOnUse" x1="235.5913" y1="745.0859" x2="301.8754" y2="745.0859" gradientTransform="matrix(1.6186 0 0 1.6186 -144.2615 -889.9678)">
		<stop  offset="0" style="stop-color:#F9AC1A"/>
		<stop  offset="1" style="stop-color:#F9C51A"/>
	</linearGradient>
	<path fill="url(#SVGID_1_)" d="M237.07,391.317V297.6l0,0c0.162-25.736,20.88-46.94,47.587-49.692
		c1.457-0.324,2.428-1.295,2.751-1.942c0.81-1.457,1.619-3.076,2.104-4.532c0.324-0.81,1.78-0.971,2.266,0
		c0.485,1.295,1.457,3.075,2.104,4.532c0.324,0.647,1.295,1.618,2.751,1.942c26.708,2.752,47.425,23.956,47.587,49.692l0,0v93.718
		H237.07z"/>
	<g>
		<g>
			<g>
				<defs>
					<path id="SVGID_2_" d="M237.07,391.317V297.6l0,0c0.162-25.736,20.88-46.94,47.587-49.692c1.457-0.324,2.428-1.295,2.751-1.942
						c0.81-1.457,1.619-3.076,2.104-4.532c0.324-0.81,1.78-0.971,2.266,0c0.485,1.295,1.457,3.075,2.104,4.532
						c0.324,0.647,1.295,1.618,2.751,1.942c26.708,2.752,47.425,23.956,47.587,49.692l0,0v93.718H237.07z"/>
				</defs>
				<clipPath id="SVGID_3_">
					<use xlink:href="#SVGID_2_"  overflow="visible"/>
				</clipPath>
				<g clip-path="url(#SVGID_3_)">
					<path fill="#162331" d="M323.505,357.165c-6.475,0-8.417,2.59-8.417,7.284c0,8.093,9.873,17.481,9.873,32.211
						c0,10.683-6.313,19.747-20.232,19.747h-6.475v-13.111h2.914c5.018,0,6.798-2.913,6.798-7.769
						c0-10.845-5.989-20.718-5.989-28.973s2.751-12.14,12.625-14.244c-9.873-2.104-12.625-8.579-12.625-16.833
						c0-8.093,5.989-14.729,5.989-25.736c0-4.856-2.428-8.579-8.417-8.579c-2.266,0-4.046,0-5.665,0v-10.036
						c14.892-7.607,27.354,5.989,27.354,16.024c0,14.567-6.15,25.898-6.15,33.829c0,4.532,1.942,6.636,8.417,6.636h4.37v9.712
						L323.505,357.165L323.505,357.165z M287.733,300.999c-1.457,0-3.237,0-5.179,0c-5.989,0-8.417,3.885-8.417,8.579
						c0,11.007,5.989,17.643,5.989,25.736c0,8.255-3.237,14.729-13.272,16.833c9.874,2.104,13.272,5.989,13.272,14.244
						c0,8.093-5.989,18.129-5.989,28.974c0,4.855,1.78,7.77,6.798,7.77h2.913v13.11h-6.474c-13.92,0-20.233-8.902-20.233-19.747
						c0-14.729,9.874-24.279,9.874-32.21c0-4.694-1.619-7.284-8.093-7.284h-5.342v-9.712h5.342c6.474,0,8.093-2.104,8.093-6.636
						c0-8.093-6.151-19.262-6.151-33.829c0-10.036,12.14-23.47,26.869-16.186V300.999z"/>
				</g>
			</g>
		</g>
	</g>
	<path fill="#5592C8" d="M342.928,397.469c-0.647,1.618-0.809,3.561-0.971,5.179c0,0,0,0,0,0.162v33.667
		c0,2.914-2.428,5.342-5.342,5.342h-91.938c-2.914,0-5.341-2.428-5.341-5.342V402.81c0,0,0,0,0-0.162
		c-0.162-1.618-0.324-3.561-0.971-5.179c-1.295-3.723-5.665-5.342-5.665-5.342l0.324-2.104H348.27l0.323,2.104
		C348.593,392.127,344.223,393.583,342.928,397.469z"/>
	<path fill="#88BCE8" d="M342.119,416.244h-35.934c-2.266,0-4.047-1.78-4.047-4.046c0-2.267,1.781-4.047,4.047-4.047h35.771v8.093
		H342.119z"/>
	<path fill="#88BCE8" d="M239.498,408.151h35.771c2.266,0,4.047,1.78,4.047,4.047c0,2.266-1.781,4.046-4.047,4.046h-35.771V408.151z
		"/>
</g>
</svg>
